<mxfile host="app.diagrams.net" modified="2023-02-28T17:23:43.494Z" agent="5.0 (Macintosh; Intel Mac OS X 10_15_7) AppleWebKit/537.36 (KHTML, like Gecko) Chrome/110.0.0.0 Safari/537.36" etag="HqA7OmcFUw1XetxSgSn9" version="20.8.23" type="github">
  <diagram name="Page-1" id="OWeuh5Rih9QYdeYNk9eg">
    <mxGraphModel dx="3804" dy="1156" grid="1" gridSize="10" guides="1" tooltips="1" connect="1" arrows="1" fold="1" page="1" pageScale="1" pageWidth="850" pageHeight="1100" math="0" shadow="0">
      <root>
        <mxCell id="0" />
        <mxCell id="1" parent="0" />
        <mxCell id="lQsMLo7POFfHN_5h0St5-43" value="" style="endArrow=classic;startArrow=classic;html=1;rounded=0;strokeColor=#006600;" edge="1" parent="1">
          <mxGeometry width="50" height="50" relative="1" as="geometry">
            <mxPoint x="400.5" y="220" as="sourcePoint" />
            <mxPoint x="490.5" y="220" as="targetPoint" />
          </mxGeometry>
        </mxCell>
        <mxCell id="lQsMLo7POFfHN_5h0St5-44" value="" style="endArrow=classic;startArrow=classic;html=1;rounded=0;strokeColor=#006600;" edge="1" parent="1">
          <mxGeometry width="50" height="50" relative="1" as="geometry">
            <mxPoint x="300" y="290" as="sourcePoint" />
            <mxPoint x="352.5" y="350" as="targetPoint" />
          </mxGeometry>
        </mxCell>
        <mxCell id="lQsMLo7POFfHN_5h0St5-45" value="" style="endArrow=classic;startArrow=classic;html=1;rounded=0;strokeColor=#006600;" edge="1" parent="1">
          <mxGeometry width="50" height="50" relative="1" as="geometry">
            <mxPoint x="550" y="360" as="sourcePoint" />
            <mxPoint x="600" y="290" as="targetPoint" />
          </mxGeometry>
        </mxCell>
        <mxCell id="lQsMLo7POFfHN_5h0St5-46" value="" style="shape=image;html=1;verticalAlign=top;verticalLabelPosition=bottom;labelBackgroundColor=#ffffff;imageAspect=0;aspect=fixed;image=https://cdn3.iconfinder.com/data/icons/arrows-set-12/512/reset-128.png" vertex="1" parent="1">
          <mxGeometry x="421" y="270" width="73" height="73" as="geometry" />
        </mxCell>
        <mxCell id="lQsMLo7POFfHN_5h0St5-35" value="Master Node" style="rounded=1;whiteSpace=wrap;html=1;fillColor=#f8cecc;strokeColor=#b85450;" vertex="1" parent="1">
          <mxGeometry x="230" y="190" width="120" height="60" as="geometry" />
        </mxCell>
        <mxCell id="lQsMLo7POFfHN_5h0St5-36" value="" style="strokeWidth=2;html=1;shape=mxgraph.flowchart.database;whiteSpace=wrap;fillColor=#d5e8d4;strokeColor=#82b366;" vertex="1" parent="1">
          <mxGeometry x="325" y="170" width="40" height="40" as="geometry" />
        </mxCell>
        <mxCell id="lQsMLo7POFfHN_5h0St5-41" value="Master Node" style="rounded=1;whiteSpace=wrap;html=1;fillColor=#f8cecc;strokeColor=#b85450;" vertex="1" parent="1">
          <mxGeometry x="550" y="190" width="120" height="60" as="geometry" />
        </mxCell>
        <mxCell id="lQsMLo7POFfHN_5h0St5-42" value="" style="strokeWidth=2;html=1;shape=mxgraph.flowchart.database;whiteSpace=wrap;fillColor=#d5e8d4;strokeColor=#82b366;" vertex="1" parent="1">
          <mxGeometry x="645" y="170" width="40" height="40" as="geometry" />
        </mxCell>
        <mxCell id="lQsMLo7POFfHN_5h0St5-38" value="Master Node" style="rounded=1;whiteSpace=wrap;html=1;fillColor=#f8cecc;strokeColor=#b85450;" vertex="1" parent="1">
          <mxGeometry x="390" y="390" width="120" height="60" as="geometry" />
        </mxCell>
        <mxCell id="lQsMLo7POFfHN_5h0St5-39" value="" style="strokeWidth=2;html=1;shape=mxgraph.flowchart.database;whiteSpace=wrap;fillColor=#d5e8d4;strokeColor=#82b366;" vertex="1" parent="1">
          <mxGeometry x="485" y="370" width="40" height="40" as="geometry" />
        </mxCell>
        <mxCell id="lQsMLo7POFfHN_5h0St5-14" value="" style="endArrow=classic;startArrow=classic;html=1;rounded=0;strokeColor=#006600;" edge="1" parent="1">
          <mxGeometry width="50" height="50" relative="1" as="geometry">
            <mxPoint x="-9.5" y="760" as="sourcePoint" />
            <mxPoint x="80.5" y="760" as="targetPoint" />
          </mxGeometry>
        </mxCell>
        <mxCell id="lQsMLo7POFfHN_5h0St5-15" value="" style="endArrow=classic;startArrow=classic;html=1;rounded=0;strokeColor=#006600;" edge="1" parent="1">
          <mxGeometry width="50" height="50" relative="1" as="geometry">
            <mxPoint x="-110" y="830" as="sourcePoint" />
            <mxPoint x="-57.5" y="890" as="targetPoint" />
          </mxGeometry>
        </mxCell>
        <mxCell id="lQsMLo7POFfHN_5h0St5-16" value="" style="endArrow=classic;startArrow=classic;html=1;rounded=0;strokeColor=#006600;" edge="1" parent="1">
          <mxGeometry width="50" height="50" relative="1" as="geometry">
            <mxPoint x="140" y="900" as="sourcePoint" />
            <mxPoint x="190" y="830" as="targetPoint" />
          </mxGeometry>
        </mxCell>
        <mxCell id="lQsMLo7POFfHN_5h0St5-17" value="" style="shape=image;html=1;verticalAlign=top;verticalLabelPosition=bottom;labelBackgroundColor=#ffffff;imageAspect=0;aspect=fixed;image=https://cdn3.iconfinder.com/data/icons/arrows-set-12/512/reset-128.png;container=0;" vertex="1" parent="1">
          <mxGeometry x="11" y="810" width="73" height="73" as="geometry" />
        </mxCell>
        <mxCell id="lQsMLo7POFfHN_5h0St5-1" value="Hot Node" style="rounded=1;whiteSpace=wrap;html=1;fillColor=#fff2cc;strokeColor=#d6b656;container=0;" vertex="1" parent="1">
          <mxGeometry x="-180" y="730" width="120" height="60" as="geometry" />
        </mxCell>
        <mxCell id="lQsMLo7POFfHN_5h0St5-6" value="" style="strokeWidth=2;html=1;shape=mxgraph.flowchart.database;whiteSpace=wrap;fillColor=#d5e8d4;strokeColor=#82b366;container=0;" vertex="1" parent="1">
          <mxGeometry x="-85" y="710" width="40" height="40" as="geometry" />
        </mxCell>
        <mxCell id="lQsMLo7POFfHN_5h0St5-9" value="Hot Node" style="rounded=1;whiteSpace=wrap;html=1;fillColor=#fff2cc;strokeColor=#d6b656;container=0;" vertex="1" parent="1">
          <mxGeometry x="-20" y="930" width="120" height="60" as="geometry" />
        </mxCell>
        <mxCell id="lQsMLo7POFfHN_5h0St5-10" value="" style="strokeWidth=2;html=1;shape=mxgraph.flowchart.database;whiteSpace=wrap;fillColor=#d5e8d4;strokeColor=#82b366;container=0;" vertex="1" parent="1">
          <mxGeometry x="75" y="910" width="40" height="40" as="geometry" />
        </mxCell>
        <mxCell id="lQsMLo7POFfHN_5h0St5-12" value="Hot Node" style="rounded=1;whiteSpace=wrap;html=1;fillColor=#fff2cc;strokeColor=#d6b656;container=0;" vertex="1" parent="1">
          <mxGeometry x="140" y="730" width="120" height="60" as="geometry" />
        </mxCell>
        <mxCell id="lQsMLo7POFfHN_5h0St5-13" value="" style="strokeWidth=2;html=1;shape=mxgraph.flowchart.database;whiteSpace=wrap;fillColor=#d5e8d4;strokeColor=#82b366;container=0;" vertex="1" parent="1">
          <mxGeometry x="235" y="710" width="40" height="40" as="geometry" />
        </mxCell>
        <mxCell id="lQsMLo7POFfHN_5h0St5-29" value="" style="endArrow=classic;startArrow=classic;html=1;rounded=0;strokeColor=#006600;" edge="1" parent="1">
          <mxGeometry width="50" height="50" relative="1" as="geometry">
            <mxPoint x="855.5" y="760" as="sourcePoint" />
            <mxPoint x="945.5" y="760" as="targetPoint" />
          </mxGeometry>
        </mxCell>
        <mxCell id="lQsMLo7POFfHN_5h0St5-30" value="" style="endArrow=classic;startArrow=classic;html=1;rounded=0;strokeColor=#006600;" edge="1" parent="1">
          <mxGeometry width="50" height="50" relative="1" as="geometry">
            <mxPoint x="755" y="830" as="sourcePoint" />
            <mxPoint x="807.5" y="890" as="targetPoint" />
          </mxGeometry>
        </mxCell>
        <mxCell id="lQsMLo7POFfHN_5h0St5-31" value="" style="endArrow=classic;startArrow=classic;html=1;rounded=0;strokeColor=#006600;" edge="1" parent="1">
          <mxGeometry width="50" height="50" relative="1" as="geometry">
            <mxPoint x="1005" y="900" as="sourcePoint" />
            <mxPoint x="1055" y="830" as="targetPoint" />
          </mxGeometry>
        </mxCell>
        <mxCell id="lQsMLo7POFfHN_5h0St5-32" value="" style="shape=image;html=1;verticalAlign=top;verticalLabelPosition=bottom;labelBackgroundColor=#ffffff;imageAspect=0;aspect=fixed;image=https://cdn3.iconfinder.com/data/icons/arrows-set-12/512/reset-128.png;container=0;" vertex="1" parent="1">
          <mxGeometry x="876" y="810" width="73" height="73" as="geometry" />
        </mxCell>
        <mxCell id="lQsMLo7POFfHN_5h0St5-21" value="Warm Node" style="rounded=1;whiteSpace=wrap;html=1;fillColor=#f9f7ed;strokeColor=#36393d;container=0;" vertex="1" parent="1">
          <mxGeometry x="685" y="730" width="120" height="60" as="geometry" />
        </mxCell>
        <mxCell id="lQsMLo7POFfHN_5h0St5-22" value="" style="strokeWidth=2;html=1;shape=mxgraph.flowchart.database;whiteSpace=wrap;fillColor=#d5e8d4;strokeColor=#82b366;container=0;" vertex="1" parent="1">
          <mxGeometry x="780" y="710" width="40" height="40" as="geometry" />
        </mxCell>
        <mxCell id="lQsMLo7POFfHN_5h0St5-24" value="Warm Node" style="rounded=1;whiteSpace=wrap;html=1;fillColor=#f9f7ed;strokeColor=#36393d;container=0;" vertex="1" parent="1">
          <mxGeometry x="845" y="930" width="120" height="60" as="geometry" />
        </mxCell>
        <mxCell id="lQsMLo7POFfHN_5h0St5-25" value="" style="strokeWidth=2;html=1;shape=mxgraph.flowchart.database;whiteSpace=wrap;fillColor=#d5e8d4;strokeColor=#82b366;container=0;" vertex="1" parent="1">
          <mxGeometry x="940" y="910" width="40" height="40" as="geometry" />
        </mxCell>
        <mxCell id="lQsMLo7POFfHN_5h0St5-27" value="Warm Node" style="rounded=1;whiteSpace=wrap;html=1;fillColor=#f9f7ed;strokeColor=#36393d;container=0;" vertex="1" parent="1">
          <mxGeometry x="1005" y="730" width="120" height="60" as="geometry" />
        </mxCell>
        <mxCell id="lQsMLo7POFfHN_5h0St5-28" value="" style="strokeWidth=2;html=1;shape=mxgraph.flowchart.database;whiteSpace=wrap;fillColor=#d5e8d4;strokeColor=#82b366;container=0;" vertex="1" parent="1">
          <mxGeometry x="1100" y="710" width="40" height="40" as="geometry" />
        </mxCell>
        <mxCell id="lQsMLo7POFfHN_5h0St5-47" value="" style="shape=flexArrow;endArrow=classic;startArrow=classic;html=1;rounded=0;strokeColor=#006600;" edge="1" parent="1">
          <mxGeometry width="100" height="100" relative="1" as="geometry">
            <mxPoint x="120" y="590" as="sourcePoint" />
            <mxPoint x="220" y="490" as="targetPoint" />
          </mxGeometry>
        </mxCell>
        <mxCell id="lQsMLo7POFfHN_5h0St5-48" value="" style="shape=flexArrow;endArrow=classic;startArrow=classic;html=1;rounded=0;strokeColor=#006600;" edge="1" parent="1">
          <mxGeometry width="100" height="100" relative="1" as="geometry">
            <mxPoint x="382.5" y="870" as="sourcePoint" />
            <mxPoint x="532.5" y="870" as="targetPoint" />
          </mxGeometry>
        </mxCell>
        <mxCell id="lQsMLo7POFfHN_5h0St5-49" value="" style="shape=flexArrow;endArrow=classic;startArrow=classic;html=1;rounded=0;strokeColor=#006600;" edge="1" parent="1">
          <mxGeometry width="100" height="100" relative="1" as="geometry">
            <mxPoint x="830" y="490" as="sourcePoint" />
            <mxPoint x="910" y="600" as="targetPoint" />
          </mxGeometry>
        </mxCell>
      </root>
    </mxGraphModel>
  </diagram>
</mxfile>
